<svg width="32" height="36" viewBox="0 0 32 36" fill="none" xmlns="http://www.w3.org/2000/svg">
<path d="M1.21124 10.9424V25.0547C1.21124 25.9557 1.69278 26.7888 2.47269 27.2378L14.6943 34.2954C15.4742 34.7445 16.4343 34.7445 17.2142 34.2954L29.4358 27.2378C30.2157 26.7888 30.6972 25.9557 30.6972 25.0547V10.9424C30.6972 10.0414 30.2157 9.2083 29.4358 8.75926L17.2142 1.70165C16.4343 1.25261 15.4742 1.25261 14.6943 1.70165L2.46974 8.75926C1.68982 9.2083 1.21124 10.0414 1.21124 10.9424Z" fill="#213147"/>
<path d="M18.6204 20.7356L16.8774 25.5155C16.8301 25.6484 16.8301 25.7932 16.8774 25.9261L19.8759 34.1507L23.3441 32.1477L19.1817 20.7356C19.0871 20.4727 18.7149 20.4727 18.6204 20.7356Z" fill="#12AAFF"/>
<path d="M22.1152 12.6972C22.0207 12.4343 21.6484 12.4343 21.5539 12.6972L19.8109 17.4771C19.7636 17.61 19.7636 17.7548 19.8109 17.8877L24.7238 31.353L28.192 29.3501L22.1152 12.6972Z" fill="#12AAFF"/>
<path d="M15.9527 2.23043C16.0384 2.23043 16.1241 2.25406 16.2009 2.29542L29.4269 9.93205C29.5805 10.0207 29.675 10.1861 29.675 10.3604V25.6307C29.675 25.808 29.5805 25.9705 29.4269 26.0591L16.2009 33.6957C16.127 33.74 16.0384 33.7607 15.9527 33.7607C15.8671 33.7607 15.7814 33.7371 15.7046 33.6957L2.47858 26.065C2.32496 25.9764 2.23043 25.8109 2.23043 25.6366V10.3634C2.23043 10.1861 2.32496 10.0236 2.47858 9.93501L15.7046 2.29838C15.7814 2.25406 15.8671 2.23043 15.9527 2.23043ZM15.9527 0C15.483 0 15.0103 0.121123 14.5879 0.366322L1.36484 8C0.519941 8.48744 0 9.38848 0 10.3634V25.6337C0 26.6086 0.519941 27.5096 1.36484 27.997L14.5908 35.6337C15.0133 35.8759 15.483 36 15.9557 36C16.4254 36 16.8981 35.8789 17.3205 35.6337L30.5465 27.997C31.3914 27.5096 31.9114 26.6086 31.9114 25.6337V10.3634C31.9114 9.38848 31.3914 8.48744 30.5465 8L17.3176 0.366322C16.8951 0.121123 16.4225 0 15.9527 0Z" fill="#9DCCED"/>
<path d="M7.20532 31.3707L8.42246 28.0384L10.8715 30.0738L8.58198 32.1654L7.20532 31.3707Z" fill="#213147"/>
<path d="M14.839 9.27032H11.486C11.2348 9.27032 11.0103 9.4269 10.9247 9.66324L3.73706 29.3678L7.2053 31.3708L15.1196 9.6721C15.1935 9.47712 15.0487 9.27032 14.839 9.27032Z" fill="white"/>
<path d="M20.7061 9.27039H17.3531C17.1019 9.27039 16.8774 9.42696 16.7918 9.6633L8.58496 32.1626L12.0532 34.1655L20.9867 9.67216C21.0576 9.47718 20.9129 9.27039 20.7061 9.27039Z" fill="white"/>
</svg>
