<svg width="71" height="70" viewBox="0 0 71 70" fill="none" xmlns="http://www.w3.org/2000/svg">
<path d="M0 22.75C0 10.1855 10.247 0 22.8873 0H47.5352C60.1755 0 70.4225 10.1855 70.4225 22.75V47.25C70.4225 59.8145 60.1755 70 47.5352 70H22.8873C10.247 70 0 59.8145 0 47.25V22.75Z" fill="#FCFCFC"/>
<path fill-rule="evenodd" clip-rule="evenodd" d="M52.0887 11.624C53.2543 11.0976 54.5775 11.9447 54.5775 13.2173V34.6719C54.5775 35.3582 54.1738 35.9812 53.5452 36.2652L39.4607 42.626C38.295 43.1524 36.9719 42.3054 36.9719 41.0328V19.5782C36.9719 18.8918 37.3755 18.2688 38.0042 17.9849L52.0887 11.624ZM18.3564 11.6768C17.1886 11.1296 15.8451 11.9764 15.8451 13.2597V53.6403C15.8451 54.3178 16.2384 54.9344 16.8549 55.2232L30.9394 61.8232C32.1072 62.3705 33.4507 61.5236 33.4507 60.2403V19.8597C33.4507 19.1823 33.0574 18.5657 32.4409 18.2768L18.3564 11.6768Z" fill="#4A5AFF"/>
</svg>
